<?xml version="1.0" encoding="UTF-8" standalone="no"?>
<!-- Created with Inkscape (http://www.inkscape.org/) -->

<svg
   version="1.1"
   id="svg2"
   width="2592"
   height="1423.6267"
   viewBox="0 0 2592 1423.6267"
   sodipodi:docname="13716871.eps"
   xmlns:inkscape="http://www.inkscape.org/namespaces/inkscape"
   xmlns:sodipodi="http://sodipodi.sourceforge.net/DTD/sodipodi-0.dtd"
   xmlns="http://www.w3.org/2000/svg"
   xmlns:svg="http://www.w3.org/2000/svg">
  <defs
     id="defs6" />
  <sodipodi:namedview
     id="namedview4"
     pagecolor="#ffffff"
     bordercolor="#000000"
     borderopacity="0.25"
     inkscape:showpageshadow="2"
     inkscape:pageopacity="0.0"
     inkscape:pagecheckerboard="0"
     inkscape:deskcolor="#d1d1d1" />
  <g
     id="g8"
     inkscape:groupmode="layer"
     inkscape:label="ink_ext_XXXXXX"
     transform="matrix(1.3333333,0,0,-1.3333333,0,1423.6267)">
    <g
       id="g10"
       transform="scale(0.1)">
      <path
         d="m 1546.87,1196.22 h 111.02 c 273.27,0 409.81,105.16 409.81,315.31 0,203.42 -140.83,305.18 -422.57,305.18 h -98.26 z m 0,-275.72 V 120 h -297.48 v 1971.2 h 336.99 c 165.22,0 289.88,-11.54 374.15,-34.53 85.06,-22.99 159.97,-66.35 224.66,-130.17 113.21,-110.67 169.76,-250.27 169.76,-418.73 0,-180.51 -60.4,-323.44 -181.3,-428.95 C 2052.84,973.219 1889.89,920.5 1684.73,920.5 h -137.86"
         style="fill:#ba1843;fill-opacity:1;fill-rule:nonzero;stroke:none"
         id="path12" />
      <path
         d="m 2854.28,1185.99 h 94.41 c 281.66,0 422.58,107.7 422.58,323.01 0,201.76 -137.07,302.55 -411.04,302.55 H 2854.28 Z M 3224.41,960.02 3834.76,120 h -363.92 l -562.97,806.891 h -53.59 V 120 h -297.57 v 1971.2 h 348.62 c 260.42,0 448.46,-48.96 564.2,-146.86 127.71,-108.93 191.53,-252.73 191.53,-431.5 0,-139.6 -39.95,-259.63 -120.03,-359.98 -79.98,-100.44 -185.5,-164.7 -316.62,-192.84"
         style="fill:#ba1843;fill-opacity:1;fill-rule:nonzero;stroke:none"
         id="path14" />
      <path
         d="m 4183.38,1110.72 c 0,-217.931 73.16,-397.052 219.59,-537.521 145.46,-140.398 313.56,-210.597 504.22,-210.597 206.83,0 381.32,71.496 523.46,214.398 142.14,144.719 213.12,320.949 213.12,528.57 0,210.24 -70.11,386.38 -210.59,528.52 -139.6,143.02 -312.34,214.52 -518.3,214.52 -205.08,0 -378.34,-71.5 -519.6,-214.52 -141.27,-141.27 -211.9,-315.75 -211.9,-523.37 z m -300.02,3.85 c 0,277.38 101.67,515.76 305.09,714.9 202.54,199.14 446,298.7 730.28,298.7 280.78,0 521.71,-100.44 722.59,-301.24 201.67,-200.88 302.47,-442.15 302.47,-723.9 0,-283.409 -101.23,-523.928 -303.78,-721.229 C 5436.59,183.398 5191.04,84.3008 4903.34,84.3008 c -254.47,0 -482.98,88.0972 -685.52,264.1992 -223,195 -334.46,450.23 -334.46,766.07"
         style="fill:#ba1843;fill-opacity:1;fill-rule:nonzero;stroke:none"
         id="path16" />
      <path
         d="m 6510.77,399.602 h 134.1 c 133.58,0 244.6,14.097 333.15,42.097 88.55,29.801 168.54,77 239.96,141.699 146.42,133.68 219.59,307.731 219.59,522.172 0,216.18 -72.29,391.54 -216.97,525.99 -130.25,120.02 -322.22,179.99 -575.73,179.99 h -134.1 z M 6213.29,120 v 1971.2 h 413.66 c 198.35,0 354.92,-19.58 469.78,-58.75 123.44,-38.29 235.33,-103.41 335.77,-195.38 203.42,-185.5 305.09,-429.39 305.09,-731.5 0,-302.992 -105.95,-548.07 -317.85,-735.371 C 7313.35,276.598 7201.9,211.5 7085.28,174.898 6976.36,138.301 6821.81,120 6621.79,120 h -408.5"
         style="fill:#ba1843;fill-opacity:1;fill-rule:nonzero;stroke:none"
         id="path18" />
      <path
         d="M 8304.58,2091.2 V 903.891 c 0,-169.411 27.62,-293.192 83.04,-371.493 82.53,-113.199 198.62,-169.796 348.45,-169.796 150.71,0 267.23,56.597 349.84,169.796 55.25,75.801 82.96,199.543 82.96,371.493 V 2091.2 h 297.48 V 822.16 C 9466.35,614.5 9401.67,443.5 9272.29,308.898 9126.74,159.199 8947.97,84.3008 8736.07,84.3008 c -211.9,0 -390.23,74.8982 -534.91,224.5972 C 8071.79,443.5 8007.1,614.5 8007.1,822.16 V 2091.2 h 297.48"
         style="fill:#ba1843;fill-opacity:1;fill-rule:nonzero;stroke:none"
         id="path20" />
      <path
         d="m 11290.8,1985.25 v -352.38 c -172,143.8 -349.9,215.74 -533.7,215.74 -202.6,0 -373.2,-72.82 -511.9,-218.28 -139.7,-144.76 -209.4,-321.78 -209.4,-531.15 0,-206.821 69.7,-381.309 209.4,-523.379 139.6,-142.102 310.6,-213.199 513.2,-213.199 104.7,0 193.6,17 266.8,51.097 40.9,17 83.2,39.903 127,68.899 43.9,28.902 90,63.8 138.6,104.703 V 228.5 c -170.2,-96.199 -349,-144.1992 -536.3,-144.1992 -281.6,0 -522.1,98.3012 -721.2,294.8982 -198.39,198.301 -297.53,437.449 -297.53,717.451 0,251.06 82.96,474.94 248.97,671.54 204.26,240.83 468.56,361.3 792.76,361.3 177,0 348.1,-48.08 513.3,-144.24"
         style="fill:#ba1843;fill-opacity:1;fill-rule:nonzero;stroke:none"
         id="path22" />
      <path
         d="M 12105.3,1811.55 V 120 h -297.5 v 1691.55 h -453.1 v 279.65 h 1202.6 v -279.65 h -452"
         style="fill:#ba1843;fill-opacity:1;fill-rule:nonzero;stroke:none"
         id="path24" />
      <path
         d="M 13015.7,2091.2 V 120 h -297.4 v 1971.2 h 297.4"
         style="fill:#ba1843;fill-opacity:1;fill-rule:nonzero;stroke:none"
         id="path26" />
      <path
         d="m 13586.4,1110.72 c 0,-217.931 73.2,-397.052 219.6,-537.521 145.6,-140.398 313.7,-210.597 504.3,-210.597 206.9,0 381.2,71.496 523.4,214.398 142.1,144.719 213.2,320.949 213.2,528.57 0,210.24 -70.2,386.38 -210.6,528.52 -139.6,143.02 -312.4,214.52 -518.4,214.52 -205.1,0 -378.3,-71.5 -519.6,-214.52 -141.2,-141.27 -211.9,-315.75 -211.9,-523.37 z m -300,3.85 c 0,277.38 101.8,515.76 305.2,714.9 202.5,199.14 445.9,298.7 730.2,298.7 280.8,0 521.7,-100.44 722.6,-301.24 201.6,-200.88 302.5,-442.15 302.5,-723.9 0,-283.409 -101.3,-523.928 -303.8,-721.229 -203.5,-198.403 -448.9,-297.5002 -736.6,-297.5002 -254.5,0 -483,88.0972 -685.6,264.1992 -223,195 -334.5,450.23 -334.5,766.07"
         style="fill:#ba1843;fill-opacity:1;fill-rule:nonzero;stroke:none"
         id="path28" />
      <path
         d="M 15616.4,120 V 2225.21 L 17053.9,721.371 V 2091.2 h 297.5 V 0 L 15913.8,1500.08 V 120 h -297.4"
         style="fill:#ba1843;fill-opacity:1;fill-rule:nonzero;stroke:none"
         id="path30" />
      <path
         d="m 18833.6,1797.56 -241.2,-143.01 c -45.1,78.32 -88.1,129.37 -129,153.24 -42.5,27.19 -97.4,40.82 -164.7,40.82 -82.5,0 -151,-23.42 -205.5,-70.19 -54.4,-45.98 -81.7,-103.85 -81.7,-173.61 0,-96.25 71.5,-173.7 214.5,-232.36 l 196.6,-80.42 c 160,-64.69 277,-143.63 351.1,-236.9 74,-93.189 111,-207.439 111,-342.771 0,-181.257 -60.4,-331.058 -181.3,-449.359 -121.7,-119.199 -272.7,-178.6992 -453.2,-178.6992 -171.1,0 -312.3,50.5972 -423.9,151.8982 -109.7,101.199 -178.2,243.801 -205.5,427.602 l 301.3,66.48 c 13.6,-115.781 37.5,-195.781 71.6,-240.082 61.2,-85.097 150.6,-127.597 268,-127.597 92.8,0 169.8,31 231.1,93.199 61.3,62.097 91.9,140.801 91.9,236.187 0,38.293 -5.4,73.352 -15.9,105.262 -10.7,31.988 -27.3,61.281 -49.9,88.109 -22.5,26.84 -51.6,51.93 -87.4,75.36 -35.7,23.34 -78.3,45.721 -127.7,66.961 l -190.2,79.2 c -269.8,113.99 -404.7,280.87 -404.7,500.46 0,148.09 56.6,271.87 169.8,371.44 113.2,100.44 254,150.71 422.6,150.71 227.3,0 404.7,-110.68 532.3,-331.93"
         style="fill:#ba1843;fill-opacity:1;fill-rule:nonzero;stroke:none"
         id="path32" />
      <path
         d="m 8292.12,10662.8 c -90.92,38.8 -196.13,-3.4 -234.99,-94.3 L 4690.83,2692.64 c -38.85,-90.93 3.35,-196.13 94.26,-234.99 90.93,-38.86 196.13,3.34 234.99,94.26 l 3366.3,7875.89 c 38.86,90.9 -3.35,196.1 -94.26,235"
         style="fill:#ba1843;fill-opacity:1;fill-rule:nonzero;stroke:none"
         id="path34" />
      <path
         d="M 1245.59,8586.63 V 2572.28 h 2916.05 v 7107.87 c 0,0 -3912.367,-996.32 -4058.171,-1044.92 -145.801,-48.6 -157.9534,-376.66 97.203,-328.05 255.152,48.6 1044.918,279.45 1044.918,279.45"
         style="fill:#ba1843;fill-opacity:1;fill-rule:nonzero;stroke:none"
         id="path36" />
      <path
         d="m 13305.3,5601.98 c -740.6,614.52 -2221.8,701.18 -2221.8,701.18 v 86.66 c 945.5,-31.51 2403,519.98 2355.7,1615.08 -47.3,1095.1 -945.4,1764.78 -2371.4,1764.78 -1426.01,0 -2048.4,-236.37 -2552.63,-567.26 -504.21,-330.89 -426.05,-500.1 -346.64,-583 90.28,-94.25 266.99,-49.63 340.4,31.93 73.41,81.57 277.31,334.41 848.25,595.41 570.93,261 1245.82,228.38 1245.82,228.38 V 6498.7 H 9579.52 c -94.18,0 -170.54,-76.35 -170.54,-170.54 0,-94.18 76.36,-170.54 170.54,-170.54 H 10603 V 2734.23 c -716.97,23.63 -1213.31,78.78 -1796.32,315.14 -637.51,258.45 -701.18,598.76 -858.75,795.72 -157.57,196.96 -401.8,31.51 -370.29,-165.45 31.52,-196.96 234.27,-743.14 1693.87,-1102.98 1500.99,-370.06 2725.89,-78.78 3694.99,559.37 969,638.15 1079.3,1851.43 338.8,2465.95"
         style="fill:#ba1843;fill-opacity:1;fill-rule:nonzero;stroke:none"
         id="path38" />
      <path
         d="m 18957.2,5657.11 c -740.6,614.52 -2221.7,701.18 -2221.7,701.18 v 86.66 c 945.4,-31.51 2402.9,519.98 2355.7,1615.09 -47.3,1095.09 -945.5,1764.77 -2371.5,1764.77 -1426,0 -2048.4,-236.36 -2552.6,-567.26 -504.2,-330.89 -426,-500.09 -346.6,-583 90.3,-94.25 267,-49.63 340.4,31.93 73.4,81.57 277.3,334.41 848.2,595.41 571,261.01 1245.8,228.38 1245.8,228.38 V 6553.84 h -1023.4 c -94.2,0 -170.6,-76.36 -170.6,-170.55 0,-94.18 76.4,-170.54 170.6,-170.54 h 1023.4 V 2789.36 c -716.9,23.64 -1213.3,78.79 -1796.3,315.14 -637.5,258.45 -701.1,598.76 -858.7,795.72 -157.6,196.96 -401.8,31.51 -370.3,-165.45 31.5,-196.96 234.3,-743.14 1693.9,-1102.98 1501,-370.05 2725.9,-78.78 3694.9,559.37 969.1,638.15 1079.4,1851.43 338.8,2465.95"
         style="fill:#ba1843;fill-opacity:1;fill-rule:nonzero;stroke:none"
         id="path40" />
    </g>
  </g>
</svg>
